<svg width="188" height="29" viewBox="0 0 188 29" fill="none" xmlns="http://www.w3.org/2000/svg">
<path d="M1.20801 4.95215V23.0474H5.30504V15.5362L11.792 13.798L10.7678 10.7563L5.30504 12.037L4.6222 12.22V8.02492H11.792V4.95215H1.20801Z" fill="url(#paint0_linear_627_1059)" stroke="#D7F1FD" stroke-width="0.682839" stroke-linejoin="round"/>
<path d="M13.1634 22.5V5.35714H15.952V22.5H13.1634ZM18.242 18.2714V11.0714H21.0306V17.54C21.0306 17.9895 21.141 18.401 21.362 18.7743C21.5829 19.14 21.8763 19.4333 22.242 19.6543C22.6153 19.8676 23.0229 19.9743 23.4648 19.9743C23.922 19.9743 24.3334 19.8676 24.6991 19.6543C25.0649 19.4333 25.3582 19.14 25.5791 18.7743C25.8001 18.401 25.9106 17.9895 25.9106 17.54V11.0714H28.6991L28.7106 22.5H25.922L25.9106 21.46C25.5144 21.8714 25.0458 22.199 24.5049 22.4429C23.9639 22.679 23.3849 22.7971 22.7677 22.7971C21.9372 22.7971 21.1791 22.5952 20.4934 22.1914C19.8077 21.78 19.2591 21.2352 18.8477 20.5571C18.4439 19.8714 18.242 19.1095 18.242 18.2714ZM37.124 13.86H34.9068V22.5H32.1182V13.86H30.4268V11.0714H32.1182V7.48286H34.9068V11.0714H37.124V13.86ZM45.3159 13.86H43.0988V22.5H40.3102V13.86H38.6188V11.0714H40.3102V7.48286H43.0988V11.0714H45.3159V13.86ZM52.1652 22.7971C51.1138 22.7971 50.1538 22.5267 49.2852 21.9857C48.4243 21.4448 47.7347 20.7171 47.2166 19.8029C46.7062 18.8886 46.4509 17.879 46.4509 16.7743C46.4509 15.9438 46.5995 15.1667 46.8966 14.4429C47.1938 13.7114 47.6014 13.0714 48.1195 12.5229C48.6452 11.9667 49.2547 11.5324 49.9481 11.22C50.6414 10.9076 51.3804 10.7514 52.1652 10.7514C53.0566 10.7514 53.8719 10.9419 54.6109 11.3229C55.3576 11.6962 55.99 12.2105 56.5081 12.8657C57.0262 13.521 57.4033 14.2676 57.6395 15.1057C57.8757 15.9438 57.929 16.82 57.7995 17.7343H49.4452C49.5519 18.161 49.7271 18.5457 49.9709 18.8886C50.2147 19.2238 50.5233 19.4943 50.8966 19.7C51.27 19.8981 51.6928 20.001 52.1652 20.0086C52.6528 20.0162 53.0947 19.9019 53.4909 19.6657C53.8947 19.4219 54.23 19.0943 54.4966 18.6829L57.3423 19.3457C56.8776 20.359 56.1843 21.1895 55.2623 21.8371C54.3404 22.4771 53.3081 22.7971 52.1652 22.7971ZM49.3538 15.6429H54.9766C54.8928 15.1857 54.7138 14.7743 54.4395 14.4086C54.1728 14.0352 53.8414 13.7381 53.4452 13.5171C53.049 13.2962 52.6223 13.1857 52.1652 13.1857C51.7081 13.1857 51.2852 13.2962 50.8966 13.5171C50.5081 13.7305 50.1766 14.0238 49.9023 14.3971C49.6357 14.7629 49.4528 15.1781 49.3538 15.6429ZM59.6704 22.5L59.659 11.0714H62.4475L62.459 12.0886C62.8475 11.6771 63.3123 11.3533 63.8532 11.1171C64.3942 10.8733 64.9771 10.7514 65.6018 10.7514C66.0209 10.7514 66.4399 10.8124 66.859 10.9343L65.7618 13.7457C65.4723 13.6314 65.1828 13.5743 64.8932 13.5743C64.4437 13.5743 64.0323 13.6848 63.659 13.9057C63.2932 14.119 62.9999 14.4124 62.779 14.7857C62.5656 15.1514 62.459 15.559 62.459 16.0086V22.5H59.6704ZM73.9447 22.5V6.5H76.7332V19.7114H83.3961V22.5H73.9447ZM93.5886 11.0714H96.3772V22.5H93.5886L93.4629 21.0829C93.1505 21.5933 92.7353 22.0086 92.2172 22.3286C91.7067 22.641 91.101 22.7971 90.4 22.7971C89.5543 22.7971 88.7619 22.6371 88.0229 22.3171C87.2838 21.9971 86.6324 21.5552 86.0686 20.9914C85.5124 20.4276 85.0743 19.7762 84.7543 19.0371C84.4419 18.2981 84.2857 17.5057 84.2857 16.66C84.2857 15.8448 84.4343 15.079 84.7315 14.3629C85.0362 13.6467 85.4591 13.0181 86 12.4771C86.541 11.9362 87.1657 11.5133 87.8743 11.2086C88.5829 10.9038 89.3448 10.7514 90.16 10.7514C90.9143 10.7514 91.5886 10.919 92.1829 11.2543C92.7848 11.5895 93.2953 12.0162 93.7143 12.5343L93.5886 11.0714ZM90.3315 20.1114C90.9257 20.1114 91.4515 19.9629 91.9086 19.6657C92.3657 19.3686 92.7238 18.9686 92.9829 18.4657C93.2419 17.9552 93.3715 17.3952 93.3715 16.7857C93.3715 16.1686 93.2419 15.6086 92.9829 15.1057C92.7238 14.5952 92.3619 14.1914 91.8972 13.8943C91.44 13.5971 90.9181 13.4486 90.3315 13.4486C89.7448 13.4486 89.2076 13.601 88.72 13.9057C88.24 14.2029 87.8553 14.6029 87.5657 15.1057C87.2838 15.6086 87.1429 16.1686 87.1429 16.7857C87.1429 17.4029 87.2876 17.9629 87.5772 18.4657C87.8667 18.9686 88.2515 19.3686 88.7315 19.6657C89.2191 19.9629 89.7524 20.1114 90.3315 20.1114ZM98.1974 18.2714V11.0714H100.986V17.54C100.986 17.9895 101.096 18.401 101.317 18.7743C101.538 19.14 101.832 19.4333 102.197 19.6543C102.571 19.8676 102.978 19.9743 103.42 19.9743C103.877 19.9743 104.289 19.8676 104.654 19.6543C105.02 19.4333 105.314 19.14 105.534 18.7743C105.755 18.401 105.866 17.9895 105.866 17.54V11.0714H108.654L108.666 22.5H105.877L105.866 21.46C105.47 21.8714 105.001 22.199 104.46 22.4429C103.919 22.679 103.34 22.7971 102.723 22.7971C101.893 22.7971 101.134 22.5952 100.449 22.1914C99.7631 21.78 99.2145 21.2352 98.8031 20.5571C98.3993 19.8714 98.1974 19.1095 98.1974 18.2714ZM121.422 15.2771V22.5H118.634V16.0086C118.634 15.559 118.523 15.1514 118.302 14.7857C118.081 14.4124 117.784 14.119 117.411 13.9057C117.045 13.6848 116.637 13.5743 116.188 13.5743C115.738 13.5743 115.327 13.6848 114.954 13.9057C114.588 14.119 114.295 14.4124 114.074 14.7857C113.86 15.1514 113.754 15.559 113.754 16.0086V22.5H110.965L110.954 11.0714H113.742L113.754 12.0886C114.142 11.6771 114.607 11.3533 115.148 11.1171C115.689 10.8733 116.272 10.7514 116.896 10.7514C117.727 10.7514 118.485 10.9571 119.171 11.3686C119.856 11.7724 120.401 12.3171 120.805 13.0029C121.216 13.681 121.422 14.439 121.422 15.2771ZM130.562 19.06L133.076 20.42C132.55 21.1362 131.891 21.7114 131.099 22.1457C130.306 22.58 129.442 22.7971 128.504 22.7971C127.453 22.7971 126.493 22.5267 125.624 21.9857C124.764 21.4448 124.074 20.721 123.556 19.8143C123.045 18.9 122.79 17.8905 122.79 16.7857C122.79 15.9476 122.939 15.1667 123.236 14.4429C123.533 13.7114 123.941 13.0714 124.459 12.5229C124.984 11.9667 125.594 11.5324 126.287 11.22C126.981 10.9076 127.72 10.7514 128.504 10.7514C129.442 10.7514 130.306 10.9686 131.099 11.4029C131.891 11.8371 132.55 12.42 133.076 13.1514L130.562 14.5C130.295 14.1952 129.979 13.959 129.613 13.7914C129.255 13.6238 128.885 13.54 128.504 13.54C127.956 13.54 127.461 13.6924 127.019 13.9971C126.577 14.2943 126.226 14.6905 125.967 15.1857C125.708 15.6733 125.579 16.2067 125.579 16.7857C125.579 17.3571 125.708 17.8905 125.967 18.3857C126.226 18.8733 126.577 19.2657 127.019 19.5629C127.461 19.86 127.956 20.0086 128.504 20.0086C128.901 20.0086 129.278 19.9248 129.636 19.7571C129.994 19.5819 130.303 19.3495 130.562 19.06ZM145.239 15.2771V22.5H142.451V16.0086C142.451 15.559 142.34 15.1514 142.119 14.7857C141.898 14.4124 141.601 14.119 141.228 13.9057C140.862 13.6848 140.454 13.5743 140.005 13.5743C139.555 13.5743 139.144 13.6848 138.771 13.9057C138.405 14.119 138.112 14.4124 137.891 14.7857C137.677 15.1514 137.571 15.559 137.571 16.0086V22.5H134.782L134.771 5.35714H137.559L137.571 12.0886C137.959 11.6771 138.424 11.3533 138.965 11.1171C139.506 10.8733 140.089 10.7514 140.713 10.7514C141.544 10.7514 142.302 10.9571 142.988 11.3686C143.673 11.7724 144.218 12.3171 144.622 13.0029C145.033 13.681 145.239 14.439 145.239 15.2771ZM150.305 28.2143H147.516V11.0714H150.305V12.5229C150.678 12.0048 151.135 11.5857 151.676 11.2657C152.225 10.9381 152.865 10.7743 153.596 10.7743C154.434 10.7743 155.215 10.9305 155.939 11.2429C156.663 11.5552 157.299 11.9895 157.848 12.5457C158.404 13.0943 158.834 13.7305 159.139 14.4543C159.451 15.1781 159.608 15.9552 159.608 16.7857C159.608 17.6162 159.451 18.3971 159.139 19.1286C158.834 19.86 158.404 20.5038 157.848 21.06C157.299 21.6086 156.663 22.039 155.939 22.3514C155.215 22.6638 154.434 22.82 153.596 22.82C152.865 22.82 152.225 22.66 151.676 22.34C151.135 22.0124 150.678 21.5895 150.305 21.0714V28.2143ZM153.562 13.46C152.983 13.46 152.465 13.6124 152.008 13.9171C151.55 14.2143 151.192 14.6143 150.933 15.1171C150.674 15.62 150.545 16.1762 150.545 16.7857C150.545 17.3952 150.674 17.9552 150.933 18.4657C151.192 18.9686 151.55 19.3724 152.008 19.6771C152.465 19.9743 152.983 20.1229 153.562 20.1229C154.148 20.1229 154.686 19.9743 155.173 19.6771C155.661 19.38 156.049 18.98 156.339 18.4771C156.628 17.9667 156.773 17.4029 156.773 16.7857C156.773 16.1762 156.628 15.62 156.339 15.1171C156.049 14.6143 155.661 14.2143 155.173 13.9171C154.693 13.6124 154.156 13.46 153.562 13.46ZM170.062 11.0714H172.85V22.5H170.062L169.936 21.0829C169.624 21.5933 169.208 22.0086 168.69 22.3286C168.18 22.641 167.574 22.7971 166.873 22.7971C166.028 22.7971 165.235 22.6371 164.496 22.3171C163.757 21.9971 163.106 21.5552 162.542 20.9914C161.986 20.4276 161.548 19.7762 161.228 19.0371C160.915 18.2981 160.759 17.5057 160.759 16.66C160.759 15.8448 160.908 15.079 161.205 14.3629C161.509 13.6467 161.932 13.0181 162.473 12.4771C163.014 11.9362 163.639 11.5133 164.348 11.2086C165.056 10.9038 165.818 10.7514 166.633 10.7514C167.388 10.7514 168.062 10.919 168.656 11.2543C169.258 11.5895 169.768 12.0162 170.188 12.5343L170.062 11.0714ZM166.805 20.1114C167.399 20.1114 167.925 19.9629 168.382 19.6657C168.839 19.3686 169.197 18.9686 169.456 18.4657C169.715 17.9552 169.845 17.3952 169.845 16.7857C169.845 16.1686 169.715 15.6086 169.456 15.1057C169.197 14.5952 168.835 14.1914 168.37 13.8943C167.913 13.5971 167.391 13.4486 166.805 13.4486C166.218 13.4486 165.681 13.601 165.193 13.9057C164.713 14.2029 164.328 14.6029 164.039 15.1057C163.757 15.6086 163.616 16.1686 163.616 16.7857C163.616 17.4029 163.761 17.9629 164.05 18.4657C164.34 18.9686 164.725 19.3686 165.205 19.6657C165.692 19.9629 166.226 20.1114 166.805 20.1114ZM183.544 5.35714H186.333V22.5H183.544V21.0714C183.179 21.5819 182.718 21.9971 182.162 22.3171C181.605 22.6371 180.962 22.7971 180.23 22.7971C179.4 22.7971 178.623 22.641 177.899 22.3286C177.175 22.0162 176.535 21.5857 175.979 21.0371C175.43 20.481 175 19.841 174.687 19.1171C174.375 18.3933 174.219 17.6162 174.219 16.7857C174.219 15.9552 174.375 15.1781 174.687 14.4543C175 13.7305 175.43 13.0943 175.979 12.5457C176.535 11.9895 177.175 11.5552 177.899 11.2429C178.623 10.9305 179.4 10.7743 180.23 10.7743C180.962 10.7743 181.605 10.9343 182.162 11.2543C182.718 11.5667 183.179 11.9819 183.544 12.5V5.35714ZM180.264 20.1114C180.859 20.1114 181.384 19.9629 181.842 19.6657C182.299 19.3686 182.657 18.9686 182.916 18.4657C183.175 17.9552 183.304 17.3952 183.304 16.7857C183.304 16.1686 183.175 15.6086 182.916 15.1057C182.657 14.5952 182.295 14.1914 181.83 13.8943C181.373 13.5971 180.851 13.4486 180.264 13.4486C179.678 13.4486 179.141 13.601 178.653 13.9057C178.173 14.2029 177.788 14.6029 177.499 15.1057C177.217 15.6086 177.076 16.1686 177.076 16.7857C177.076 17.4029 177.221 17.9629 177.51 18.4657C177.8 18.9686 178.184 19.3686 178.664 19.6657C179.152 19.9629 179.685 20.1114 180.264 20.1114Z" fill="black"/>
<defs>
<linearGradient id="paint0_linear_627_1059" x1="4.11007" y1="4.95215" x2="4.11007" y2="23.0474" gradientUnits="userSpaceOnUse">
<stop stop-color="#065B9D"/>
<stop offset="1" stop-color="#32B9F6"/>
</linearGradient>
</defs>
</svg>
