<svg width="117" height="47" viewBox="0 0 117 47" fill="none" xmlns="http://www.w3.org/2000/svg">
<path d="M1 4.45215V22.5474H5.09703V15.0362L11.584 13.298L10.5597 10.2563L5.09703 11.537L4.4142 11.72V7.52492H11.584V4.45215H1Z" fill="url(#paint0_linear_627_1059)" stroke="#D7F1FD" stroke-width="0.682839" stroke-linejoin="round"/>
<path d="M12.9554 22V4.85714H15.744V22H12.9554ZM18.034 17.7714V10.5714H20.8226V17.04C20.8226 17.4895 20.933 17.901 21.154 18.2743C21.3749 18.64 21.6683 18.9333 22.034 19.1543C22.4073 19.3676 22.8149 19.4743 23.2568 19.4743C23.714 19.4743 24.1254 19.3676 24.4911 19.1543C24.8568 18.9333 25.1502 18.64 25.3711 18.2743C25.5921 17.901 25.7026 17.4895 25.7026 17.04V10.5714H28.4911L28.5026 22H25.714L25.7026 20.96C25.3064 21.3714 24.8378 21.699 24.2968 21.9429C23.7559 22.179 23.1768 22.2971 22.5597 22.2971C21.7292 22.2971 20.9711 22.0952 20.2854 21.6914C19.5997 21.28 19.0511 20.7352 18.6397 20.0571C18.2359 19.3714 18.034 18.6095 18.034 17.7714ZM36.9159 13.36H34.6988V22H31.9102V13.36H30.2188V10.5714H31.9102V6.98286H34.6988V10.5714H36.9159V13.36ZM45.1079 13.36H42.8908V22H40.1022V13.36H38.4108V10.5714H40.1022V6.98286H42.8908V10.5714H45.1079V13.36ZM51.9572 22.2971C50.9058 22.2971 49.9458 22.0267 49.0772 21.4857C48.2162 20.9448 47.5267 20.2171 47.0086 19.3029C46.4982 18.3886 46.2429 17.379 46.2429 16.2743C46.2429 15.4438 46.3915 14.6667 46.6886 13.9429C46.9858 13.2114 47.3934 12.5714 47.9115 12.0229C48.4372 11.4667 49.0467 11.0324 49.7401 10.72C50.4334 10.4076 51.1724 10.2514 51.9572 10.2514C52.8486 10.2514 53.6639 10.4419 54.4029 10.8229C55.1496 11.1962 55.782 11.7105 56.3001 12.3657C56.8182 13.021 57.1953 13.7676 57.4315 14.6057C57.6677 15.4438 57.721 16.32 57.5915 17.2343H49.2372C49.3439 17.661 49.5191 18.0457 49.7629 18.3886C50.0067 18.7238 50.3153 18.9943 50.6886 19.2C51.062 19.3981 51.4848 19.501 51.9572 19.5086C52.4448 19.5162 52.8867 19.4019 53.2829 19.1657C53.6867 18.9219 54.022 18.5943 54.2886 18.1829L57.1343 18.8457C56.6696 19.859 55.9762 20.6895 55.0543 21.3371C54.1324 21.9771 53.1001 22.2971 51.9572 22.2971ZM49.1458 15.1429H54.7686C54.6848 14.6857 54.5058 14.2743 54.2315 13.9086C53.9648 13.5352 53.6334 13.2381 53.2372 13.0171C52.841 12.7962 52.4143 12.6857 51.9572 12.6857C51.5001 12.6857 51.0772 12.7962 50.6886 13.0171C50.3001 13.2305 49.9686 13.5238 49.6943 13.8971C49.4277 14.2629 49.2448 14.6781 49.1458 15.1429ZM59.4624 22L59.4509 10.5714H62.2395L62.2509 11.5886C62.6395 11.1771 63.1043 10.8533 63.6452 10.6171C64.1862 10.3733 64.769 10.2514 65.3938 10.2514C65.8129 10.2514 66.2319 10.3124 66.651 10.4343L65.5538 13.2457C65.2643 13.1314 64.9748 13.0743 64.6852 13.0743C64.2357 13.0743 63.8243 13.1848 63.451 13.4057C63.0852 13.619 62.7919 13.9124 62.5709 14.2857C62.3576 14.6514 62.2509 15.059 62.2509 15.5086V22H59.4624Z" fill="black"/>
<path d="M2.37143 41V25H5.16V38.2114H11.8229V41H2.37143ZM22.0154 29.5714H24.8039V41H22.0154L21.8896 39.5829C21.5773 40.0933 21.162 40.5086 20.6439 40.8286C20.1335 41.141 19.5277 41.2971 18.8268 41.2971C17.9811 41.2971 17.1887 41.1371 16.4496 40.8171C15.7106 40.4971 15.0592 40.0552 14.4954 39.4914C13.9392 38.9276 13.5011 38.2762 13.1811 37.5371C12.8687 36.7981 12.7125 36.0057 12.7125 35.16C12.7125 34.3448 12.8611 33.579 13.1582 32.8629C13.463 32.1467 13.8858 31.5181 14.4268 30.9771C14.9677 30.4362 15.5925 30.0133 16.3011 29.7086C17.0096 29.4038 17.7715 29.2514 18.5868 29.2514C19.3411 29.2514 20.0154 29.419 20.6096 29.7543C21.2115 30.0895 21.722 30.5162 22.1411 31.0343L22.0154 29.5714ZM18.7582 38.6114C19.3525 38.6114 19.8782 38.4629 20.3354 38.1657C20.7925 37.8686 21.1506 37.4686 21.4096 36.9657C21.6687 36.4552 21.7982 35.8952 21.7982 35.2857C21.7982 34.6686 21.6687 34.1086 21.4096 33.6057C21.1506 33.0952 20.7887 32.6914 20.3239 32.3943C19.8668 32.0971 19.3449 31.9486 18.7582 31.9486C18.1715 31.9486 17.6344 32.101 17.1468 32.4057C16.6668 32.7029 16.282 33.1029 15.9925 33.6057C15.7106 34.1086 15.5696 34.6686 15.5696 35.2857C15.5696 35.9029 15.7144 36.4629 16.0039 36.9657C16.2935 37.4686 16.6782 37.8686 17.1582 38.1657C17.6458 38.4629 18.1792 38.6114 18.7582 38.6114ZM26.6241 36.7714V29.5714H29.4127V36.04C29.4127 36.4895 29.5232 36.901 29.7441 37.2743C29.9651 37.64 30.2584 37.9333 30.6241 38.1543C30.9974 38.3676 31.4051 38.4743 31.847 38.4743C32.3041 38.4743 32.7155 38.3676 33.0813 38.1543C33.447 37.9333 33.7403 37.64 33.9613 37.2743C34.1822 36.901 34.2927 36.4895 34.2927 36.04V29.5714H37.0813L37.0927 41H34.3041L34.2927 39.96C33.8965 40.3714 33.4279 40.699 32.887 40.9429C32.346 41.179 31.767 41.2971 31.1498 41.2971C30.3193 41.2971 29.5613 41.0952 28.8755 40.6914C28.1898 40.28 27.6413 39.7352 27.2298 39.0571C26.826 38.3714 26.6241 37.6095 26.6241 36.7714ZM49.8489 33.7771V41H47.0604V34.5086C47.0604 34.059 46.9499 33.6514 46.7289 33.2857C46.508 32.9124 46.2108 32.619 45.8375 32.4057C45.4718 32.1848 45.0642 32.0743 44.6146 32.0743C44.1651 32.0743 43.7537 32.1848 43.3804 32.4057C43.0146 32.619 42.7213 32.9124 42.5004 33.2857C42.287 33.6514 42.1804 34.059 42.1804 34.5086V41H39.3918L39.3804 29.5714H42.1689L42.1804 30.5886C42.5689 30.1771 43.0337 29.8533 43.5746 29.6171C44.1156 29.3733 44.6985 29.2514 45.3232 29.2514C46.1537 29.2514 46.9118 29.4571 47.5975 29.8686C48.2832 30.2724 48.828 30.8171 49.2318 31.5029C49.6432 32.181 49.8489 32.939 49.8489 33.7771ZM58.9884 37.56L61.5027 38.92C60.977 39.6362 60.3179 40.2114 59.5255 40.6457C58.7332 41.08 57.8684 41.2971 56.9313 41.2971C55.8798 41.2971 54.9198 41.0267 54.0513 40.4857C53.1903 39.9448 52.5008 39.221 51.9827 38.3143C51.4722 37.4 51.217 36.3905 51.217 35.2857C51.217 34.4476 51.3655 33.6667 51.6627 32.9429C51.9598 32.2114 52.3674 31.5714 52.8855 31.0229C53.4113 30.4667 54.0208 30.0324 54.7141 29.72C55.4074 29.4076 56.1465 29.2514 56.9313 29.2514C57.8684 29.2514 58.7332 29.4686 59.5255 29.9029C60.3179 30.3371 60.977 30.92 61.5027 31.6514L58.9884 33C58.7217 32.6952 58.4055 32.459 58.0398 32.2914C57.6817 32.1238 57.3122 32.04 56.9313 32.04C56.3827 32.04 55.8874 32.1924 55.4455 32.4971C55.0036 32.7943 54.6532 33.1905 54.3941 33.6857C54.1351 34.1733 54.0055 34.7067 54.0055 35.2857C54.0055 35.8571 54.1351 36.3905 54.3941 36.8857C54.6532 37.3733 55.0036 37.7657 55.4455 38.0629C55.8874 38.36 56.3827 38.5086 56.9313 38.5086C57.3274 38.5086 57.7046 38.4248 58.0627 38.2571C58.4208 38.0819 58.7293 37.8495 58.9884 37.56ZM73.6659 33.7771V41H70.8773V34.5086C70.8773 34.059 70.7668 33.6514 70.5459 33.2857C70.3249 32.9124 70.0278 32.619 69.6545 32.4057C69.2888 32.1848 68.8811 32.0743 68.4316 32.0743C67.9821 32.0743 67.5707 32.1848 67.1973 32.4057C66.8316 32.619 66.5383 32.9124 66.3173 33.2857C66.104 33.6514 65.9973 34.059 65.9973 34.5086V41H63.2088L63.1973 23.8571H65.9859L65.9973 30.5886C66.3859 30.1771 66.8507 29.8533 67.3916 29.6171C67.9326 29.3733 68.5154 29.2514 69.1402 29.2514C69.9707 29.2514 70.7288 29.4571 71.4145 29.8686C72.1002 30.2724 72.6449 30.8171 73.0488 31.5029C73.4602 32.181 73.6659 32.939 73.6659 33.7771ZM78.7314 46.7143H75.9429V29.5714H78.7314V31.0229C79.1048 30.5048 79.5619 30.0857 80.1029 29.7657C80.6514 29.4381 81.2914 29.2743 82.0229 29.2743C82.861 29.2743 83.6419 29.4305 84.3657 29.7429C85.0895 30.0552 85.7257 30.4895 86.2743 31.0457C86.8305 31.5943 87.261 32.2305 87.5657 32.9543C87.8781 33.6781 88.0343 34.4552 88.0343 35.2857C88.0343 36.1162 87.8781 36.8971 87.5657 37.6286C87.261 38.36 86.8305 39.0038 86.2743 39.56C85.7257 40.1086 85.0895 40.539 84.3657 40.8514C83.6419 41.1638 82.861 41.32 82.0229 41.32C81.2914 41.32 80.6514 41.16 80.1029 40.84C79.5619 40.5124 79.1048 40.0895 78.7314 39.5714V46.7143ZM81.9886 31.96C81.4095 31.96 80.8914 32.1124 80.4343 32.4171C79.9771 32.7143 79.619 33.1143 79.36 33.6171C79.101 34.12 78.9714 34.6762 78.9714 35.2857C78.9714 35.8952 79.101 36.4552 79.36 36.9657C79.619 37.4686 79.9771 37.8724 80.4343 38.1771C80.8914 38.4743 81.4095 38.6229 81.9886 38.6229C82.5752 38.6229 83.1124 38.4743 83.6 38.1771C84.0876 37.88 84.4762 37.48 84.7657 36.9771C85.0552 36.4667 85.2 35.9029 85.2 35.2857C85.2 34.6762 85.0552 34.12 84.7657 33.6171C84.4762 33.1143 84.0876 32.7143 83.6 32.4171C83.12 32.1124 82.5829 31.96 81.9886 31.96ZM98.4886 29.5714H101.277V41H98.4886L98.3629 39.5829C98.0505 40.0933 97.6352 40.5086 97.1171 40.8286C96.6067 41.141 96.001 41.2971 95.3 41.2971C94.4543 41.2971 93.6619 41.1371 92.9229 40.8171C92.1838 40.4971 91.5324 40.0552 90.9686 39.4914C90.4124 38.9276 89.9743 38.2762 89.6543 37.5371C89.3419 36.7981 89.1857 36.0057 89.1857 35.16C89.1857 34.3448 89.3343 33.579 89.6314 32.8629C89.9362 32.1467 90.359 31.5181 90.9 30.9771C91.441 30.4362 92.0657 30.0133 92.7743 29.7086C93.4829 29.4038 94.2448 29.2514 95.06 29.2514C95.8143 29.2514 96.4886 29.419 97.0829 29.7543C97.6848 30.0895 98.1952 30.5162 98.6143 31.0343L98.4886 29.5714ZM95.2314 38.6114C95.8257 38.6114 96.3514 38.4629 96.8086 38.1657C97.2657 37.8686 97.6238 37.4686 97.8829 36.9657C98.1419 36.4552 98.2714 35.8952 98.2714 35.2857C98.2714 34.6686 98.1419 34.1086 97.8829 33.6057C97.6238 33.0952 97.2619 32.6914 96.7971 32.3943C96.34 32.0971 95.8181 31.9486 95.2314 31.9486C94.6448 31.9486 94.1076 32.101 93.62 32.4057C93.14 32.7029 92.7552 33.1029 92.4657 33.6057C92.1838 34.1086 92.0429 34.6686 92.0429 35.2857C92.0429 35.9029 92.1876 36.4629 92.4771 36.9657C92.7667 37.4686 93.1514 37.8686 93.6314 38.1657C94.119 38.4629 94.6524 38.6114 95.2314 38.6114ZM111.971 23.8571H114.76V41H111.971V39.5714C111.606 40.0819 111.145 40.4971 110.588 40.8171C110.032 41.1371 109.388 41.2971 108.657 41.2971C107.826 41.2971 107.049 41.141 106.326 40.8286C105.602 40.5162 104.962 40.0857 104.406 39.5371C103.857 38.981 103.426 38.341 103.114 37.6171C102.802 36.8933 102.646 36.1162 102.646 35.2857C102.646 34.4552 102.802 33.6781 103.114 32.9543C103.426 32.2305 103.857 31.5943 104.406 31.0457C104.962 30.4895 105.602 30.0552 106.326 29.7429C107.049 29.4305 107.826 29.2743 108.657 29.2743C109.388 29.2743 110.032 29.4343 110.588 29.7543C111.145 30.0667 111.606 30.4819 111.971 31V23.8571ZM108.691 38.6114C109.286 38.6114 109.811 38.4629 110.268 38.1657C110.726 37.8686 111.084 37.4686 111.343 36.9657C111.602 36.4552 111.731 35.8952 111.731 35.2857C111.731 34.6686 111.602 34.1086 111.343 33.6057C111.084 33.0952 110.722 32.6914 110.257 32.3943C109.8 32.0971 109.278 31.9486 108.691 31.9486C108.105 31.9486 107.567 32.101 107.08 32.4057C106.6 32.7029 106.215 33.1029 105.926 33.6057C105.644 34.1086 105.503 34.6686 105.503 35.2857C105.503 35.9029 105.647 36.4629 105.937 36.9657C106.226 37.4686 106.611 37.8686 107.091 38.1657C107.579 38.4629 108.112 38.6114 108.691 38.6114Z" fill="black"/>
<defs>
<linearGradient id="paint0_linear_627_1059" x1="3.90206" y1="4.45215" x2="3.90206" y2="22.5474" gradientUnits="userSpaceOnUse">
<stop stop-color="#065B9D"/>
<stop offset="1" stop-color="#32B9F6"/>
</linearGradient>
</defs>
</svg>
